HIERARCHY
ROOT Hips
{
	OFFSET 0.000000 0.000000 0.000000
	CHANNELS 6 Xposition Yposition Zposition Xrotation Yrotation Zrotation
	JOINT LeftUpLeg_virtual
	{
		OFFSET 0.000000 0.000000 0.000000
		CHANNELS 3 Xrotation Yrotation Zrotation
		JOINT LeftUpLeg
		{
			OFFSET 15.427100 -6.655098 0.678600
			CHANNELS 3 Xrotation Yrotation Zrotation
			JOINT LeftLeg
			{
				OFFSET 4.081073 -39.591068 13.024000
				CHANNELS 3 Xrotation Yrotation Zrotation
				JOINT LeftFoot
				{
					OFFSET -4.081074 -37.707932 -15.979700
					CHANNELS 3 Xrotation Yrotation Zrotation
					JOINT LeftToeBase
					{
						OFFSET 5.346399 -15.068900 20.645000
						CHANNELS 3 Xrotation Yrotation Zrotation
						JOINT LeftToe_End
						{
							OFFSET 2.754700 0.931300 11.300900
							CHANNELS 3 Xrotation Yrotation Zrotation
							End Site
							{
								OFFSET 0 0 0
							}
						}
					}
				}
			}
		}
	}
	JOINT RightUpLeg_virtual
	{
		OFFSET 0.000000 0.000000 0.000000
		CHANNELS 3 Xrotation Yrotation Zrotation
		JOINT RightUpLeg
		{
			OFFSET -15.569500 -6.655098 0.678600
			CHANNELS 3 Xrotation Yrotation Zrotation
			JOINT RightLeg
			{
				OFFSET -4.081825 -39.591045 13.023800
				CHANNELS 3 Xrotation Yrotation Zrotation
				JOINT RightFoot
				{
					OFFSET 4.081824 -37.707954 -15.979600
					CHANNELS 3 Xrotation Yrotation Zrotation
					JOINT RightToeBase
					{
						OFFSET -5.346400 -15.068900 20.645000
						CHANNELS 3 Xrotation Yrotation Zrotation
						JOINT RightToe_End
						{
							OFFSET -2.754700 0.931300 11.300900
							CHANNELS 3 Xrotation Yrotation Zrotation
							End Site
							{
								OFFSET 0 0 0
							}
						}
					}
				}
			}
		}
	}
	JOINT Spine_virtual
	{
		OFFSET 0.000000 0.000000 0.000000
		CHANNELS 3 Xrotation Yrotation Zrotation
		JOINT Spine
		{
			OFFSET -0.279200 12.230698 -2.892100
			CHANNELS 3 Xrotation Yrotation Zrotation
			JOINT Spine1
			{
				OFFSET -0.232667 10.192268 -1.242267
				CHANNELS 3 Xrotation Yrotation Zrotation
				JOINT Spine1_split
				{
					OFFSET -0.232667 10.192268 -1.242267
					CHANNELS 3 Xrotation Yrotation Zrotation
					JOINT Spine2
					{
						OFFSET -0.232667 10.192268 -1.242267
						CHANNELS 3 Xrotation Yrotation Zrotation
						JOINT Neck_virtual
						{
							OFFSET 0.000000 0.000000 0.000000
							CHANNELS 3 Xrotation Yrotation Zrotation
							JOINT Neck
							{
								OFFSET -0.418800 17.814194 8.416900
								CHANNELS 3 Xrotation Yrotation Zrotation
								JOINT Head
								{
									OFFSET 0.000000 7.031097 3.806800
									CHANNELS 3 Xrotation Yrotation Zrotation
									JOINT HeadTop_End
									{
										OFFSET 0.000000 24.646606 12.978600
										CHANNELS 3 Xrotation Yrotation Zrotation
										End Site
										{
											OFFSET 0 0 0
										}
									}
								}
							}
						}
						JOINT LeftShoulder_virtual
						{
							OFFSET 0.000000 0.000000 0.000000
							CHANNELS 3 Xrotation Yrotation Zrotation
							JOINT LeftShoulder
							{
								OFFSET 8.476499 7.247704 -3.868750
								CHANNELS 3 Xrotation Yrotation Zrotation
								JOINT LeftShoulder_split
								{
									OFFSET 8.476499 7.247704 -3.868750
									CHANNELS 3 Xrotation Yrotation Zrotation
									JOINT LeftArm
									{
										OFFSET 9.308998 -2.777710 0.208600
										CHANNELS 3 Xrotation Yrotation Zrotation
										JOINT LeftForeArm
										{
											OFFSET 29.972298 0.000000 0.000000
											CHANNELS 3 Xrotation Yrotation Zrotation
											JOINT LeftHand
											{
												OFFSET 26.026505 0.000000 0.000000
												CHANNELS 3 Xrotation Yrotation Zrotation
												End Site
												{
													OFFSET 0 0 0
												}
											}
										}
									}
								}
							}
						}
						JOINT RightShoulder_virtual
						{
							OFFSET 0.000000 0.000000 0.000000
							CHANNELS 3 Xrotation Yrotation Zrotation
							JOINT RightShoulder
							{
								OFFSET -7.570500 7.247704 -3.868750
								CHANNELS 3 Xrotation Yrotation Zrotation
								JOINT RightShoulder_split
								{
									OFFSET -7.570500 7.247704 -3.868750
									CHANNELS 3 Xrotation Yrotation Zrotation
									JOINT RightArm
									{
										OFFSET -9.308998 -2.777710 0.208500
										CHANNELS 3 Xrotation Yrotation Zrotation
										JOINT RightForeArm
										{
											OFFSET -29.972300 0.000000 0.000000
											CHANNELS 3 Xrotation Yrotation Zrotation
											JOINT RightHand
											{
												OFFSET -26.026505 0.000000 0.000000
												CHANNELS 3 Xrotation Yrotation Zrotation
												End Site
												{
													OFFSET 0 0 0
												}
											}
										}
									}
								}
							}
						}
					}
				}
			}
		}
	}
}
MOTION
Frames: 7
Frame Time: 0.03333333
-5.393527 80.269562 3.944950 0.000000 0.000000 0.000000 -7.853701 24.196903 8.199546 -21.836318 -15.888017 7.070344 41.178329 -0.983422 -0.040761 -15.267366 -4.626729 -18.484995 -0.000078 0.000001 0.000001 0.000000 0.000000 0.000000 -7.853701 24.196903 8.199546 -9.194972 -30.491249 -25.384244 47.515785 1.442849 0.316760 -34.719218 -6.386146 11.332628 -0.000045 0.000003 0.000001 0.000000 0.000000 0.000000 -7.853701 24.196903 8.199546 19.011458 1.304581 0.739368 5.096430 1.511988 -0.476952 0.000000 0.000000 0.000000 0.000000 0.000000 0.000000 5.088405 1.550687 -0.475985 -18.172862 -7.374422 -11.412609 -20.891290 -12.073567 1.777841 0.000000 0.000000 0.000000 5.088405 1.550687 -0.475985 -0.787867 -12.075480 -26.714938 0.000000 0.000000 0.000000 -11.942298 -3.432196 -26.261539 55.390874 -49.285173 10.889101 0.000000 0.000000 0.000000 5.088405 1.550687 -0.475985 7.717158 -7.373783 -5.050557 0.000000 0.000000 0.000000 -43.972157 -21.360508 -11.904042 -118.831303 10.484322 148.086479 0.000000 0.000000 0.000000 
-5.771423 80.946388 4.912701 0.000000 0.000000 0.000000 -7.939531 28.146897 8.753132 -22.099627 -19.665587 5.616126 39.254941 -0.878514 -0.016804 -14.178048 -4.471674 -19.028374 -0.000078 -0.000000 0.000001 0.000000 0.000000 0.000000 -7.939531 28.146897 8.753132 -7.023422 -34.451901 -24.702083 45.148018 1.428065 0.327907 -34.992176 -7.428048 11.399268 -0.000045 0.000002 0.000001 0.000000 0.000000 0.000000 -7.939531 28.146897 8.753132 19.018602 0.395917 0.978894 5.137558 -0.395259 -0.742507 0.000000 0.000000 0.000000 0.000000 0.000000 0.000000 5.145103 -0.355859 -0.748200 -17.870381 -5.140442 -11.214733 -24.990207 -9.168328 -0.055151 0.000000 0.000000 0.000000 5.145103 -0.355859 -0.748200 -0.729886 -12.936523 -24.594032 0.000000 0.000000 0.000000 -7.448408 5.738899 -26.622696 53.665886 -55.184100 15.413773 0.000000 0.000000 0.000000 5.145103 -0.355859 -0.748200 8.112591 -11.609558 1.893598 0.000000 0.000000 0.000000 -67.056154 -34.147613 -17.067557 -102.494235 5.567614 145.072371 0.000000 0.000000 0.000000 
-6.159121 81.606468 5.202679 0.000000 0.000000 0.000000 -7.298137 29.241788 8.766125 -22.157602 -20.867700 5.267935 37.439419 -0.850499 -0.015432 -13.202933 -4.080974 -19.299381 -0.000078 0.000001 0.000001 0.000000 0.000000 0.000000 -7.298137 29.241788 8.766125 -6.866788 -35.522339 -24.130449 43.837431 1.341672 0.307109 -34.656404 -7.736027 11.097428 -0.000045 0.000003 0.000001 0.000000 0.000000 0.000000 -7.298137 29.241788 8.766125 18.927918 -0.792963 1.041619 4.855964 -2.915590 -1.485521 0.000000 0.000000 0.000000 0.000000 0.000000 0.000000 4.883687 -2.873581 -1.502391 -18.060805 -5.500297 -5.127129 -24.573313 -6.833849 -0.602035 0.000000 0.000000 0.000000 4.883687 -2.873581 -1.502391 -0.316015 -12.738286 -20.094183 0.000000 0.000000 0.000000 -3.377281 12.102860 -31.052762 48.967866 -55.386940 15.024106 0.000000 0.000000 0.000000 4.883687 -2.873581 -1.502391 7.432621 -14.000966 15.289377 0.000000 0.000000 0.000000 -88.040244 -27.657362 -16.830780 -88.510366 5.611619 143.384303 0.000000 0.000000 0.000000 
-6.141519 82.129166 4.983032 0.000000 0.000000 0.000000 -5.848403 26.263437 7.470133 -21.434701 -18.768542 6.899821 36.807077 -0.920612 -0.043935 -13.377388 -3.192662 -19.031340 -0.000078 -0.000000 0.000001 0.000000 0.000000 0.000000 -5.848403 26.263437 7.470133 -8.066522 -32.537341 -22.837716 43.520456 1.239870 0.266496 -33.626541 -7.426920 10.505097 -0.000045 0.000003 0.000001 0.000000 0.000000 0.000000 -5.848403 26.263437 7.470133 18.827729 -1.385193 0.791732 4.550503 -3.858607 -1.671252 0.000000 0.000000 0.000000 0.000000 0.000000 0.000000 4.578960 -3.822012 -1.696238 -14.922696 -5.357099 0.196062 -24.371157 -4.007911 -2.552566 0.000000 0.000000 0.000000 4.578960 -3.822012 -1.696238 -0.221534 -12.860661 -18.877567 0.000000 0.000000 0.000000 -1.061235 14.809867 -32.315681 50.440725 -54.077592 16.009070 0.000000 0.000000 0.000000 4.578960 -3.822012 -1.696238 7.322573 -12.708483 21.788221 0.000000 0.000000 0.000000 -89.621774 -19.762177 -15.733674 -88.461386 9.776975 144.189965 0.000000 0.000000 0.000000 
-5.750299 82.556519 4.549709 0.000000 0.000000 0.000000 -4.260905 21.080762 5.546591 -20.449754 -14.661003 9.638824 37.013533 -1.037769 -0.087755 -14.357918 -2.320390 -18.449140 -0.000078 -0.000000 0.000001 0.000000 0.000000 0.000000 -4.260905 21.080762 5.546591 -9.646046 -27.373113 -20.755891 43.437182 1.156797 0.224498 -32.015952 -7.015312 9.888170 -0.000045 0.000003 0.000001 0.000000 0.000000 0.000000 -4.260905 21.080762 5.546591 19.123813 -1.379249 0.443216 5.072665 -3.373055 -1.212727 0.000000 0.000000 0.000000 0.000000 0.000000 0.000000 5.087339 -3.346280 -1.238952 -14.129569 -3.866755 0.608830 -25.386994 -2.477272 -2.360062 0.000000 0.000000 0.000000 5.087339 -3.346280 -1.238952 -0.008487 -10.673456 -18.318846 0.000000 0.000000 0.000000 -1.564256 12.468340 -31.473662 55.753806 -52.827306 17.774176 0.000000 0.000000 0.000000 5.087339 -3.346280 -1.238952 6.854853 -8.625333 17.121727 0.000000 0.000000 0.000000 -81.879959 -24.154896 -12.454397 -95.197708 12.244534 145.632365 0.000000 0.000000 0.000000 
-5.205432 82.944054 4.079525 0.000000 0.000000 0.000000 -3.125524 16.398801 3.966106 -19.770985 -10.911027 11.898272 37.284141 -1.142057 -0.129346 -15.248254 -1.557431 -17.835798 -0.000078 -0.000000 0.000001 0.000000 0.000000 0.000000 -3.125524 16.398801 3.966106 -11.071463 -22.818170 -18.895903 43.122290 1.097952 0.192544 -30.247411 -6.649473 9.568561 -0.000045 0.000003 0.000001 0.000000 0.000000 0.000000 -3.125524 16.398801 3.966106 19.180327 -0.820759 0.207391 5.130053 -2.094928 -0.843495 0.000000 0.000000 0.000000 0.000000 0.000000 0.000000 5.136506 -2.075506 -0.863116 -14.193349 -2.694918 -1.208740 -26.438745 -2.264636 -1.605993 0.000000 0.000000 0.000000 5.136506 -2.075506 -0.863116 -0.030727 -9.953682 -19.570804 0.000000 0.000000 0.000000 -2.193692 11.932375 -30.434623 57.080769 -54.492909 20.010644 0.000000 0.000000 0.000000 5.136506 -2.075506 -0.863116 6.874486 -6.693020 12.973463 0.000000 0.000000 0.000000 -84.445700 -26.484535 -10.445977 -92.359614 9.746915 146.164286 0.000000 0.000000 0.000000 
-4.706631 83.282150 3.699940 0.000000 0.000000 0.000000 -2.646273 13.608221 3.237060 -19.312908 -8.639607 12.877264 37.245971 -1.201805 -0.155854 -15.620535 -1.016269 -17.298690 -0.000078 -0.000000 0.000001 0.000000 0.000000 0.000000 -2.646273 13.608221 3.237060 -11.897901 -20.086420 -18.014001 42.676241 1.058007 0.173245 -28.891827 -6.444434 9.572320 -0.000045 0.000003 0.000001 0.000000 0.000000 0.000000 -2.646273 13.608221 3.237060 18.934427 -0.463312 0.213961 4.642583 -1.427782 -0.570445 0.000000 0.000000 0.000000 0.000000 0.000000 0.000000 4.647290 -1.412075 -0.584676 -12.426129 -2.144590 -2.452321 -26.881369 -2.471271 -0.966096 0.000000 0.000000 0.000000 4.647290 -1.412075 -0.584676 0.006947 -9.057136 -20.314897 0.000000 0.000000 0.000000 -2.276527 12.295099 -30.836433 55.390751 -56.304149 20.086731 0.000000 0.000000 0.000000 4.647290 -1.412075 -0.584676 7.001977 -5.632085 9.240081 0.000000 0.000000 0.000000 -88.482512 -27.311147 -8.009444 -95.114161 11.258051 149.370199 0.000000 0.000000 0.000000 
